<svg width="104" height="32" viewBox="0 0 104 32" fill="none" xmlns="http://www.w3.org/2000/svg">
<rect x="0.968262" width="103.032" height="31.4177" rx="5" fill="black"/>
<path d="M32.6667 27L36.4108 17.9H38.5948L42.2868 27H40.2458L39.3228 24.608H35.5658L34.6297 27H32.6667ZM36.1507 23.1H38.7508L37.4638 19.746L36.1507 23.1ZM42.9422 29.717V20.227H44.6972V20.786C44.9659 20.5693 45.2649 20.409 45.5942 20.305C45.9236 20.1923 46.2659 20.136 46.6212 20.136C47.0979 20.136 47.5442 20.227 47.9602 20.409C48.3849 20.591 48.7532 20.838 49.0652 21.15C49.3772 21.462 49.6199 21.8303 49.7932 22.255C49.9752 22.6797 50.0662 23.1347 50.0662 23.62C50.0662 24.1053 49.9752 24.5603 49.7932 24.985C49.6112 25.4097 49.3642 25.778 49.0522 26.09C48.7402 26.402 48.3676 26.649 47.9342 26.831C47.5096 27.0043 47.0546 27.091 46.5692 27.091C46.2399 27.091 45.9149 27.0477 45.5942 26.961C45.2822 26.8657 44.9919 26.7313 44.7232 26.558V29.717H42.9422ZM46.3352 21.657C46.0146 21.657 45.7156 21.7133 45.4382 21.826C45.1609 21.93 44.9226 22.086 44.7232 22.294V24.959C44.9139 25.1497 45.1479 25.3013 45.4252 25.414C45.7112 25.5267 46.0146 25.583 46.3352 25.583C46.8899 25.583 47.3579 25.3967 47.7392 25.024C48.1206 24.6427 48.3112 24.1747 48.3112 23.62C48.3112 23.0653 48.1162 22.6017 47.7262 22.229C47.3449 21.8477 46.8812 21.657 46.3352 21.657ZM51.1561 29.717V20.227H52.9111V20.786C53.1798 20.5693 53.4788 20.409 53.8081 20.305C54.1374 20.1923 54.4798 20.136 54.8351 20.136C55.3118 20.136 55.7581 20.227 56.1741 20.409C56.5988 20.591 56.9671 20.838 57.2791 21.15C57.5911 21.462 57.8338 21.8303 58.0071 22.255C58.1891 22.6797 58.2801 23.1347 58.2801 23.62C58.2801 24.1053 58.1891 24.5603 58.0071 24.985C57.8251 25.4097 57.5781 25.778 57.2661 26.09C56.9541 26.402 56.5814 26.649 56.1481 26.831C55.7234 27.0043 55.2684 27.091 54.7831 27.091C54.4538 27.091 54.1288 27.0477 53.8081 26.961C53.4961 26.8657 53.2058 26.7313 52.9371 26.558V29.717H51.1561ZM54.5491 21.657C54.2284 21.657 53.9294 21.7133 53.6521 21.826C53.3748 21.93 53.1364 22.086 52.9371 22.294V24.959C53.1278 25.1497 53.3618 25.3013 53.6391 25.414C53.9251 25.5267 54.2284 25.583 54.5491 25.583C55.1038 25.583 55.5718 25.3967 55.9531 25.024C56.3344 24.6427 56.5251 24.1747 56.5251 23.62C56.5251 23.0653 56.3301 22.6017 55.9401 22.229C55.5588 21.8477 55.0951 21.657 54.5491 21.657ZM61.3222 25.557L62.4012 24.205C62.9299 24.6643 63.4369 25.0023 63.9222 25.219C64.4162 25.427 64.9362 25.531 65.4822 25.531C66.0455 25.531 66.4962 25.427 66.8342 25.219C67.1722 25.011 67.3412 24.7337 67.3412 24.387C67.3412 24.075 67.2242 23.8323 66.9902 23.659C66.7649 23.4857 66.3835 23.3557 65.8462 23.269L64.0392 22.957C63.2592 22.827 62.6655 22.554 62.2582 22.138C61.8595 21.722 61.6602 21.1847 61.6602 20.526C61.6602 19.6767 61.9809 19.005 62.6222 18.511C63.2722 18.017 64.1475 17.77 65.2482 17.77C65.9069 17.77 66.5699 17.8827 67.2372 18.108C67.9132 18.3333 68.5025 18.6453 69.0052 19.044L67.9912 20.448C67.5059 20.0753 67.0292 19.8023 66.5612 19.629C66.0932 19.447 65.6122 19.356 65.1182 19.356C64.6155 19.356 64.2125 19.4513 63.9092 19.642C63.6059 19.824 63.4542 20.071 63.4542 20.383C63.4542 20.6603 63.5539 20.877 63.7532 21.033C63.9525 21.189 64.2862 21.3017 64.7542 21.371L66.4702 21.657C67.3715 21.8043 68.0475 22.0947 68.4982 22.528C68.9575 22.9527 69.1872 23.516 69.1872 24.218C69.1872 25.102 68.8362 25.8083 68.1342 26.337C67.4409 26.8657 66.5135 27.13 65.3522 27.13C64.6242 27.13 63.9049 26.9913 63.1942 26.714C62.4922 26.4367 61.8682 26.051 61.3222 25.557ZM70.8682 25.089V21.722H69.4772V20.227H70.8682V18.498L72.6492 18.095V20.227H74.5732V21.722H72.6492V24.725C72.6492 25.0457 72.7185 25.271 72.8572 25.401C72.9958 25.531 73.2385 25.596 73.5852 25.596C73.7498 25.596 73.9058 25.5873 74.0532 25.57C74.2005 25.544 74.3608 25.5007 74.5342 25.44V26.896C74.3435 26.9567 74.1138 27.0043 73.8452 27.039C73.5765 27.0823 73.3468 27.104 73.1562 27.104C72.4022 27.104 71.8302 26.935 71.4402 26.597C71.0588 26.2503 70.8682 25.7477 70.8682 25.089ZM75.0795 23.62C75.0795 23.126 75.1705 22.6667 75.3525 22.242C75.5431 21.8087 75.7988 21.436 76.1195 21.124C76.4488 20.8033 76.8345 20.552 77.2765 20.37C77.7185 20.188 78.1908 20.097 78.6935 20.097C79.1961 20.097 79.6685 20.188 80.1105 20.37C80.5525 20.552 80.9338 20.8033 81.2545 21.124C81.5838 21.436 81.8395 21.8087 82.0215 22.242C82.2121 22.6667 82.3075 23.126 82.3075 23.62C82.3075 24.114 82.2121 24.5777 82.0215 25.011C81.8395 25.4357 81.5838 25.804 81.2545 26.116C80.9338 26.428 80.5525 26.675 80.1105 26.857C79.6685 27.039 79.1961 27.13 78.6935 27.13C78.1908 27.13 77.7185 27.039 77.2765 26.857C76.8345 26.675 76.4488 26.428 76.1195 26.116C75.7988 25.804 75.5431 25.4357 75.3525 25.011C75.1705 24.5777 75.0795 24.114 75.0795 23.62ZM78.6935 25.583C79.2135 25.583 79.6555 25.3923 80.0195 25.011C80.3835 24.6297 80.5655 24.166 80.5655 23.62C80.5655 23.0653 80.3835 22.5973 80.0195 22.216C79.6555 21.8347 79.2135 21.644 78.6935 21.644C78.1735 21.644 77.7315 21.8347 77.3675 22.216C77.0035 22.5973 76.8215 23.0653 76.8215 23.62C76.8215 24.166 77.0035 24.6297 77.3675 25.011C77.7315 25.3923 78.1735 25.583 78.6935 25.583ZM83.4022 27V20.227H85.1832V20.968C85.3999 20.6733 85.6599 20.4523 85.9632 20.305C86.2752 20.149 86.6175 20.071 86.9902 20.071C87.1635 20.0797 87.3065 20.097 87.4192 20.123C87.5405 20.1403 87.6445 20.175 87.7312 20.227V21.787C87.6012 21.7263 87.4582 21.683 87.3022 21.657C87.1462 21.6223 86.9859 21.605 86.8212 21.605C86.4745 21.605 86.1539 21.6917 85.8592 21.865C85.5732 22.0383 85.3479 22.2897 85.1832 22.619V27H83.4022ZM94.4371 26.155C94.0211 26.493 93.5921 26.74 93.1501 26.896C92.7167 27.052 92.2314 27.13 91.6941 27.13C91.1827 27.13 90.7017 27.039 90.2511 26.857C89.8091 26.675 89.4234 26.428 89.0941 26.116C88.7734 25.804 88.5177 25.4357 88.3271 25.011C88.1451 24.5777 88.0541 24.114 88.0541 23.62C88.0541 23.1347 88.1407 22.6797 88.3141 22.255C88.4961 21.8217 88.7431 21.449 89.0551 21.137C89.3671 20.8163 89.7354 20.565 90.1601 20.383C90.5934 20.201 91.0527 20.11 91.5381 20.11C92.0147 20.11 92.4567 20.2053 92.8641 20.396C93.2801 20.578 93.6354 20.8293 93.9301 21.15C94.2334 21.4707 94.4674 21.8563 94.6321 22.307C94.8054 22.749 94.8921 23.23 94.8921 23.75V24.218H89.8481C89.9694 24.6427 90.2034 24.985 90.5501 25.245C90.8967 25.505 91.3041 25.635 91.7721 25.635C92.0667 25.635 92.3441 25.5873 92.6041 25.492C92.8641 25.3967 93.0851 25.2623 93.2671 25.089L94.4371 26.155ZM91.4991 21.579C91.0917 21.579 90.7407 21.7047 90.4461 21.956C90.1514 22.1987 89.9477 22.528 89.8351 22.944H93.1501C93.0374 22.5453 92.8294 22.2203 92.5261 21.969C92.2314 21.709 91.8891 21.579 91.4991 21.579Z" fill="white"/>
<path d="M38.7461 9.67578H36.543L36.082 11H35.0547L37.2031 5.3125H38.0898L40.2422 11H39.2109L38.7461 9.67578ZM36.8203 8.87891H38.4688L37.6445 6.51953L36.8203 8.87891ZM42.0938 9.79688L42.9883 6.77344H43.9688L42.5039 11H41.6797L40.2031 6.77344H41.1875L42.0938 9.79688ZM47.0273 11C46.9857 10.9193 46.9492 10.7878 46.918 10.6055C46.6159 10.9206 46.2461 11.0781 45.8086 11.0781C45.3841 11.0781 45.0378 10.957 44.7695 10.7148C44.5013 10.4727 44.3672 10.1732 44.3672 9.81641C44.3672 9.36589 44.5339 9.02083 44.8672 8.78125C45.2031 8.53906 45.6823 8.41797 46.3047 8.41797H46.8867V8.14062C46.8867 7.92188 46.8255 7.7474 46.7031 7.61719C46.5807 7.48438 46.3945 7.41797 46.1445 7.41797C45.9284 7.41797 45.7513 7.47266 45.6133 7.58203C45.4753 7.6888 45.4062 7.82552 45.4062 7.99219H44.457C44.457 7.76042 44.5339 7.54427 44.6875 7.34375C44.8411 7.14062 45.0495 6.98177 45.3125 6.86719C45.5781 6.7526 45.8737 6.69531 46.1992 6.69531C46.694 6.69531 47.0885 6.82031 47.3828 7.07031C47.6771 7.31771 47.8281 7.66667 47.8359 8.11719V10.0234C47.8359 10.4036 47.8893 10.707 47.9961 10.9336V11H47.0273ZM45.9844 10.3164C46.1719 10.3164 46.3477 10.2708 46.5117 10.1797C46.6784 10.0885 46.8034 9.96615 46.8867 9.8125V9.01562H46.375C46.0234 9.01562 45.7591 9.07682 45.582 9.19922C45.4049 9.32161 45.3164 9.49479 45.3164 9.71875C45.3164 9.90104 45.3763 10.0469 45.4961 10.1562C45.6185 10.263 45.7812 10.3164 45.9844 10.3164ZM49.8398 11H48.8906V6.77344H49.8398V11ZM48.832 5.67578C48.832 5.52995 48.8776 5.40885 48.9688 5.3125C49.0625 5.21615 49.1953 5.16797 49.3672 5.16797C49.5391 5.16797 49.6719 5.21615 49.7656 5.3125C49.8594 5.40885 49.9062 5.52995 49.9062 5.67578C49.9062 5.81901 49.8594 5.9388 49.7656 6.03516C49.6719 6.12891 49.5391 6.17578 49.3672 6.17578C49.1953 6.17578 49.0625 6.12891 48.9688 6.03516C48.8776 5.9388 48.832 5.81901 48.832 5.67578ZM51.8867 11H50.9375V5H51.8867V11ZM55.4492 11C55.4076 10.9193 55.3711 10.7878 55.3398 10.6055C55.0378 10.9206 54.668 11.0781 54.2305 11.0781C53.806 11.0781 53.4596 10.957 53.1914 10.7148C52.9232 10.4727 52.7891 10.1732 52.7891 9.81641C52.7891 9.36589 52.9557 9.02083 53.2891 8.78125C53.625 8.53906 54.1042 8.41797 54.7266 8.41797H55.3086V8.14062C55.3086 7.92188 55.2474 7.7474 55.125 7.61719C55.0026 7.48438 54.8164 7.41797 54.5664 7.41797C54.3503 7.41797 54.1732 7.47266 54.0352 7.58203C53.8971 7.6888 53.8281 7.82552 53.8281 7.99219H52.8789C52.8789 7.76042 52.9557 7.54427 53.1094 7.34375C53.263 7.14062 53.4714 6.98177 53.7344 6.86719C54 6.7526 54.2956 6.69531 54.6211 6.69531C55.1159 6.69531 55.5104 6.82031 55.8047 7.07031C56.099 7.31771 56.25 7.66667 56.2578 8.11719V10.0234C56.2578 10.4036 56.3112 10.707 56.418 10.9336V11H55.4492ZM54.4062 10.3164C54.5938 10.3164 54.7695 10.2708 54.9336 10.1797C55.1003 10.0885 55.2253 9.96615 55.3086 9.8125V9.01562H54.7969C54.4453 9.01562 54.181 9.07682 54.0039 9.19922C53.8268 9.32161 53.7383 9.49479 53.7383 9.71875C53.7383 9.90104 53.7982 10.0469 53.918 10.1562C54.0404 10.263 54.2031 10.3164 54.4062 10.3164ZM60.9609 8.92969C60.9609 9.58594 60.8138 10.1081 60.5195 10.4961C60.2279 10.8841 59.8255 11.0781 59.3125 11.0781C58.8177 11.0781 58.4323 10.8997 58.1562 10.543L58.1094 11H57.25V5H58.1992V7.17969C58.4727 6.85677 58.8411 6.69531 59.3047 6.69531C59.8203 6.69531 60.2253 6.88672 60.5195 7.26953C60.8138 7.65234 60.9609 8.1875 60.9609 8.875V8.92969ZM60.0117 8.84766C60.0117 8.38932 59.931 8.04557 59.7695 7.81641C59.6081 7.58724 59.3737 7.47266 59.0664 7.47266C58.6549 7.47266 58.3659 7.65234 58.1992 8.01172V9.75391C58.3685 10.1211 58.6602 10.3047 59.0742 10.3047C59.3711 10.3047 59.6003 10.194 59.7617 9.97266C59.9232 9.7513 60.0065 9.41667 60.0117 8.96875V8.84766ZM62.7695 11H61.8203V5H62.7695V11ZM65.668 11.0781C65.0664 11.0781 64.5781 10.8893 64.2031 10.5117C63.8307 10.1315 63.6445 9.6263 63.6445 8.99609V8.87891C63.6445 8.45703 63.7253 8.08073 63.8867 7.75C64.0508 7.41667 64.2799 7.15755 64.5742 6.97266C64.8685 6.78776 65.1966 6.69531 65.5586 6.69531C66.1341 6.69531 66.5781 6.87891 66.8906 7.24609C67.2057 7.61328 67.3633 8.13281 67.3633 8.80469V9.1875H64.6016C64.6302 9.53646 64.7461 9.8125 64.9492 10.0156C65.1549 10.2188 65.4128 10.3203 65.7227 10.3203C66.1576 10.3203 66.5117 10.1445 66.7852 9.79297L67.2969 10.2812C67.1276 10.5339 66.901 10.7305 66.6172 10.8711C66.3359 11.0091 66.0195 11.0781 65.668 11.0781ZM65.5547 7.45703C65.2943 7.45703 65.0833 7.54818 64.9219 7.73047C64.763 7.91276 64.6615 8.16667 64.6172 8.49219H66.4258V8.42188C66.4049 8.10417 66.3203 7.86458 66.1719 7.70312C66.0234 7.53906 65.8177 7.45703 65.5547 7.45703ZM69.918 8.84766C69.918 8.43359 70 8.0612 70.1641 7.73047C70.3281 7.39714 70.5586 7.14193 70.8555 6.96484C71.1523 6.78516 71.4935 6.69531 71.8789 6.69531C72.4492 6.69531 72.9115 6.87891 73.2656 7.24609C73.6224 7.61328 73.8151 8.10026 73.8438 8.70703L73.8477 8.92969C73.8477 9.34635 73.7669 9.71875 73.6055 10.0469C73.4466 10.375 73.2174 10.6289 72.918 10.8086C72.6211 10.9883 72.2773 11.0781 71.8867 11.0781C71.2904 11.0781 70.8125 10.8802 70.4531 10.4844C70.0964 10.0859 69.918 9.55599 69.918 8.89453V8.84766ZM70.8672 8.92969C70.8672 9.36458 70.957 9.70573 71.1367 9.95312C71.3164 10.1979 71.5664 10.3203 71.8867 10.3203C72.207 10.3203 72.4557 10.1953 72.6328 9.94531C72.8125 9.69531 72.9023 9.32943 72.9023 8.84766C72.9023 8.42057 72.8099 8.08203 72.625 7.83203C72.4427 7.58203 72.194 7.45703 71.8789 7.45703C71.569 7.45703 71.3229 7.58073 71.1406 7.82812C70.9583 8.07292 70.8672 8.4401 70.8672 8.92969ZM75.5312 6.77344L75.5586 7.26172C75.8711 6.88411 76.2812 6.69531 76.7891 6.69531C77.6693 6.69531 78.1172 7.19922 78.1328 8.20703V11H77.1836V8.26172C77.1836 7.99349 77.125 7.79557 77.0078 7.66797C76.8932 7.53776 76.7044 7.47266 76.4414 7.47266C76.0586 7.47266 75.7734 7.64583 75.5859 7.99219V11H74.6367V6.77344H75.5312ZM82.2852 5.74609V6.77344H83.0312V7.47656H82.2852V9.83594C82.2852 9.9974 82.3164 10.1146 82.3789 10.1875C82.444 10.2578 82.5586 10.293 82.7227 10.293C82.832 10.293 82.9427 10.2799 83.0547 10.2539V10.9883C82.8385 11.0482 82.6302 11.0781 82.4297 11.0781C81.7005 11.0781 81.3359 10.6758 81.3359 9.87109V7.47656H80.6406V6.77344H81.3359V5.74609H82.2852ZM84.6953 7.23438C85.0052 6.875 85.3971 6.69531 85.8711 6.69531C86.7721 6.69531 87.2292 7.20964 87.2422 8.23828V11H86.293V8.27344C86.293 7.98177 86.2292 7.77604 86.1016 7.65625C85.9766 7.53385 85.7917 7.47266 85.5469 7.47266C85.1667 7.47266 84.8828 7.64193 84.6953 7.98047V11H83.7461V5H84.6953V7.23438ZM90.0664 11.0781C89.4648 11.0781 88.9766 10.8893 88.6016 10.5117C88.2292 10.1315 88.043 9.6263 88.043 8.99609V8.87891C88.043 8.45703 88.1237 8.08073 88.2852 7.75C88.4492 7.41667 88.6784 7.15755 88.9727 6.97266C89.2669 6.78776 89.5951 6.69531 89.957 6.69531C90.5326 6.69531 90.9766 6.87891 91.2891 7.24609C91.6042 7.61328 91.7617 8.13281 91.7617 8.80469V9.1875H89C89.0286 9.53646 89.1445 9.8125 89.3477 10.0156C89.5534 10.2188 89.8112 10.3203 90.1211 10.3203C90.556 10.3203 90.9102 10.1445 91.1836 9.79297L91.6953 10.2812C91.526 10.5339 91.2995 10.7305 91.0156 10.8711C90.7344 11.0091 90.418 11.0781 90.0664 11.0781ZM89.9531 7.45703C89.6927 7.45703 89.4818 7.54818 89.3203 7.73047C89.1615 7.91276 89.0599 8.16667 89.0156 8.49219H90.8242V8.42188C90.8034 8.10417 90.7188 7.86458 90.5703 7.70312C90.4219 7.53906 90.2161 7.45703 89.9531 7.45703Z" fill="white"/>
<path d="M8.96825 12.5376C6.85893 16.2505 8.19987 21.885 10.5324 25.3014C11.6968 27.0094 12.8756 28.5426 14.4901 28.5426C14.5206 28.5426 14.5511 28.542 14.5823 28.5408C15.3409 28.5101 15.8891 28.2732 16.4191 28.0442C17.0141 27.787 17.6295 27.521 18.5948 27.521C19.5132 27.521 20.0992 27.7784 20.6659 28.0271C21.2245 28.2723 21.7998 28.5258 22.6499 28.5097C24.4686 28.4753 25.5852 26.8209 26.5704 25.3614C27.5984 23.8375 28.1141 22.3579 28.2881 21.7924L28.2952 21.77C28.3283 21.6695 28.2815 21.5598 28.1865 21.5155C28.1839 21.5143 28.1743 21.5102 28.1716 21.5091C27.8513 21.3762 25.042 20.112 25.0124 16.6664C24.985 13.8671 27.12 12.3846 27.5481 12.116L27.5681 12.1034C27.6145 12.0731 27.6468 12.025 27.6578 11.9701C27.6687 11.9152 27.6573 11.8581 27.6262 11.812C26.1526 9.62453 23.8939 9.29485 22.9846 9.25519C22.8526 9.24183 22.7164 9.23511 22.5797 9.23511C21.5116 9.23511 20.4885 9.64428 19.6665 9.97304C19.0991 10.2 18.6091 10.396 18.271 10.396C17.8912 10.396 17.3983 10.1976 16.8276 9.96789C16.0644 9.66062 15.1993 9.31244 14.2835 9.31244C14.2616 9.31244 14.2401 9.31269 14.2189 9.31311C12.0896 9.34489 10.0775 10.5806 8.96825 12.5376Z" fill="white"/>
<path d="M22.9866 3.23429C21.6971 3.28756 20.1502 4.0927 19.2257 5.19116C18.4399 6.11445 17.6724 7.65386 17.8746 9.20555C17.8873 9.30263 17.9652 9.37756 18.0614 9.38511C18.1485 9.392 18.2373 9.39549 18.3258 9.39557C19.5867 9.39557 20.9468 8.68802 21.8757 7.54873C22.8534 6.34571 23.3477 4.80183 23.1982 3.41892C23.1864 3.31055 23.0924 3.23006 22.9866 3.23429Z" fill="white"/>
</svg>
