<svg width="147" height="151" viewBox="0 0 147 151" fill="none" xmlns="http://www.w3.org/2000/svg">
<rect x="16.1096" y="117.662" width="110.753" height="25.4935" fill="#242424"/>
<path d="M67.1295 5.89341C70.8294 3.26498 76.1707 3.26498 79.8706 5.89341L141.319 49.5469C148.572 54.699 144.346 64.8495 134.949 64.8495H12.0515C2.65419 64.8495 -1.57144 54.6991 5.68099 49.5469L67.1295 5.89341Z" fill="#242424"/>
<path d="M18.402 46.28H134.609V127.468H18.402V46.28Z" fill="#242424"/>
<path fill-rule="evenodd" clip-rule="evenodd" d="M3.73729 64.8042H6.83475C9.59617 64.8042 11.8347 67.0427 11.8347 69.8042V146C11.8347 148.761 14.0733 151 16.8347 151H131.411C134.172 151 136.411 148.761 136.411 146V69.8042C136.411 67.0427 138.65 64.8042 141.411 64.8042H142C144.761 64.8042 147 62.5656 147 59.8042V39.5064C147 37.6521 145.974 35.95 144.334 35.0845L80.0618 1.162C78.6752 0.430179 77.0257 0.391115 75.606 1.05648L2.87808 35.1428C1.12178 35.9659 0 37.7305 0 39.6702V61.0669C0 63.1309 1.67324 64.8042 3.73729 64.8042ZM122.396 138.417C120.504 138.417 118.97 136.883 118.97 134.991V79.8708C118.97 77.1094 116.732 74.8708 113.97 74.8708H34.8983C32.1369 74.8708 29.8983 77.1094 29.8983 79.8708V135.302C29.8983 137.022 28.5039 138.417 26.7839 138.417C25.0639 138.417 23.6695 137.022 23.6695 135.302V59.428C23.6695 57.8799 22.4146 56.625 20.8665 56.625C19.3185 56.625 18.0636 55.3701 18.0636 53.822V46.7329C18.0636 44.7209 19.2695 42.9049 21.124 42.1245L75.8563 19.0892C77.1344 18.5513 78.5785 18.5683 79.8436 19.1363L130.967 42.0872C132.764 42.8936 133.919 44.6794 133.919 46.6486V52.5763C133.919 54.8123 132.107 56.625 129.871 56.625C127.635 56.625 125.822 58.4377 125.822 60.6737V134.991C125.822 136.883 124.288 138.417 122.396 138.417Z" fill="#FFB20F"/>
<path d="M36.1271 91.8583V101.183C36.1271 102.288 37.0226 103.183 38.1271 103.183H57.1737C58.2783 103.183 59.1737 102.288 59.1737 101.183V91.3417C59.1737 90.2371 58.2783 89.3417 57.1737 89.3417H38.1271C37.0226 89.3417 36.1271 90.2371 36.1271 91.3417V91.8583Z" fill="#141313"/>
<path d="M29.8983 60.1712V68.4666C29.8983 69.5712 30.7937 70.4666 31.8983 70.4666H47.8305C48.9351 70.4666 49.8305 69.5712 49.8305 68.4666V59.8833C49.8305 58.7787 48.9351 57.8833 47.8305 57.8833H31.8983C30.7937 57.8833 29.8983 58.7787 29.8983 59.8833V60.1712Z" fill="#FFB20F"/>
<path d="M52.322 60.1712V68.4666C52.322 69.5712 53.2175 70.4666 54.322 70.4666H70.2542C71.3588 70.4666 72.2542 69.5712 72.2542 68.4666V59.8833C72.2542 58.7787 71.3588 57.8833 70.2542 57.8833H54.322C53.2175 57.8833 52.322 58.7787 52.322 59.8833V60.1712Z" fill="#FFB20F"/>
<path d="M75.9916 60.1712V68.4666C75.9916 69.5712 76.887 70.4666 77.9916 70.4666H93.9238C95.0284 70.4666 95.9238 69.5712 95.9238 68.4666V59.8833C95.9238 58.7787 95.0284 57.8833 93.9238 57.8833H77.9916C76.887 57.8833 75.9916 58.7787 75.9916 59.8833V60.1712Z" fill="#FFB20F"/>
<path d="M98.4152 60.1712V68.4666C98.4152 69.5712 99.3107 70.4666 100.415 70.4666H116.347C117.452 70.4666 118.347 69.5712 118.347 68.4666V59.8833C118.347 58.7787 117.452 57.8833 116.347 57.8833H100.415C99.3107 57.8833 98.4152 58.7787 98.4152 59.8833V60.1712Z" fill="#FFB20F"/>
<path d="M36.1271 109.475V118.8C36.1271 119.905 37.0226 120.8 38.1271 120.8H57.1737C58.2783 120.8 59.1737 119.905 59.1737 118.8V108.958C59.1737 107.854 58.2783 106.958 57.1737 106.958H38.1271C37.0226 106.958 36.1271 107.854 36.1271 108.958V109.475Z" fill="#141313"/>
<path d="M36.1271 127.092V136.417C36.1271 137.521 37.0226 138.417 38.1271 138.417H57.1737C58.2783 138.417 59.1737 137.521 59.1737 136.417V126.575C59.1737 125.47 58.2783 124.575 57.1737 124.575H38.1271C37.0226 124.575 36.1271 125.47 36.1271 126.575V127.092Z" fill="#141313"/>
<path d="M63.5339 127.092V136.417C63.5339 137.521 64.4293 138.417 65.5339 138.417H84.5805C85.6851 138.417 86.5805 137.521 86.5805 136.417V126.575C86.5805 125.47 85.6851 124.575 84.5805 124.575H65.5339C64.4293 124.575 63.5339 125.47 63.5339 126.575V127.092Z" fill="#141313"/>
<path d="M90.9407 127.092V136.417C90.9407 137.521 91.8361 138.417 92.9407 138.417H111.987C113.092 138.417 113.987 137.521 113.987 136.417V126.575C113.987 125.47 113.092 124.575 111.987 124.575H92.9407C91.8361 124.575 90.9407 125.47 90.9407 126.575V127.092Z" fill="#141313"/>
<path d="M63.5339 109.475V118.8C63.5339 119.905 64.4293 120.8 65.5339 120.8H84.5805C85.6851 120.8 86.5805 119.905 86.5805 118.8V108.958C86.5805 107.854 85.6851 106.958 84.5805 106.958H65.5339C64.4293 106.958 63.5339 107.854 63.5339 108.958V109.475Z" fill="#141313"/>
</svg>
