<svg width="570" height="161" viewBox="0 0 570 161" fill="none" xmlns="http://www.w3.org/2000/svg">
<path d="M174.656 135.062C174.656 133.292 174.031 131.938 172.781 131C171.531 130.042 169.281 129.042 166.031 128C162.781 126.938 160.208 125.896 158.312 124.875C153.146 122.083 150.562 118.323 150.562 113.594C150.562 111.135 151.25 108.948 152.625 107.031C154.021 105.094 156.01 103.583 158.594 102.5C161.198 101.417 164.115 100.875 167.344 100.875C170.594 100.875 173.49 101.469 176.031 102.656C178.573 103.823 180.542 105.479 181.938 107.625C183.354 109.771 184.062 112.208 184.062 114.938H174.688C174.688 112.854 174.031 111.24 172.719 110.094C171.406 108.927 169.562 108.344 167.188 108.344C164.896 108.344 163.115 108.833 161.844 109.812C160.573 110.771 159.938 112.042 159.938 113.625C159.938 115.104 160.677 116.344 162.156 117.344C163.656 118.344 165.854 119.281 168.75 120.156C174.083 121.76 177.969 123.75 180.406 126.125C182.844 128.5 184.062 131.458 184.062 135C184.062 138.938 182.573 142.031 179.594 144.281C176.615 146.51 172.604 147.625 167.562 147.625C164.062 147.625 160.875 146.99 158 145.719C155.125 144.427 152.927 142.667 151.406 140.438C149.906 138.208 149.156 135.625 149.156 132.688H158.562C158.562 137.708 161.562 140.219 167.562 140.219C169.792 140.219 171.531 139.771 172.781 138.875C174.031 137.958 174.656 136.688 174.656 135.062ZM200.656 104.875V113.188H206.438V119.812H200.656V136.688C200.656 137.938 200.896 138.833 201.375 139.375C201.854 139.917 202.771 140.188 204.125 140.188C205.125 140.188 206.01 140.115 206.781 139.969V146.812C205.01 147.354 203.188 147.625 201.312 147.625C194.979 147.625 191.75 144.427 191.625 138.031V119.812H186.688V113.188H191.625V104.875H200.656ZM209.125 129.781C209.125 126.427 209.771 123.438 211.062 120.812C212.354 118.188 214.208 116.156 216.625 114.719C219.062 113.281 221.885 112.562 225.094 112.562C229.656 112.562 233.375 113.958 236.25 116.75C239.146 119.542 240.76 123.333 241.094 128.125L241.156 130.438C241.156 135.625 239.708 139.792 236.812 142.938C233.917 146.062 230.031 147.625 225.156 147.625C220.281 147.625 216.385 146.062 213.469 142.938C210.573 139.812 209.125 135.562 209.125 130.188V129.781ZM218.156 130.438C218.156 133.646 218.76 136.104 219.969 137.812C221.177 139.5 222.906 140.344 225.156 140.344C227.344 140.344 229.052 139.51 230.281 137.844C231.51 136.156 232.125 133.469 232.125 129.781C232.125 126.635 231.51 124.198 230.281 122.469C229.052 120.74 227.323 119.875 225.094 119.875C222.885 119.875 221.177 120.74 219.969 122.469C218.76 124.177 218.156 126.833 218.156 130.438ZM265.719 121.656C264.49 121.49 263.406 121.406 262.469 121.406C259.052 121.406 256.812 122.562 255.75 124.875V147H246.719V113.188H255.25L255.5 117.219C257.312 114.115 259.823 112.562 263.031 112.562C264.031 112.562 264.969 112.698 265.844 112.969L265.719 121.656ZM285.031 147.625C280.073 147.625 276.031 146.104 272.906 143.062C269.802 140.021 268.25 135.969 268.25 130.906V130.031C268.25 126.635 268.906 123.604 270.219 120.938C271.531 118.25 273.385 116.188 275.781 114.75C278.198 113.292 280.948 112.562 284.031 112.562C288.656 112.562 292.292 114.021 294.938 116.938C297.604 119.854 298.938 123.99 298.938 129.344V133.031H277.406C277.698 135.24 278.573 137.01 280.031 138.344C281.51 139.677 283.375 140.344 285.625 140.344C289.104 140.344 291.823 139.083 293.781 136.562L298.219 141.531C296.865 143.448 295.031 144.948 292.719 146.031C290.406 147.094 287.844 147.625 285.031 147.625ZM284 119.875C282.208 119.875 280.75 120.479 279.625 121.688C278.521 122.896 277.812 124.625 277.5 126.875H290.062V126.156C290.021 124.156 289.479 122.615 288.438 121.531C287.396 120.427 285.917 119.875 284 119.875ZM312.906 116.875C315.302 114 318.312 112.562 321.938 112.562C329.271 112.562 332.99 116.823 333.094 125.344V147H324.062V125.594C324.062 123.656 323.646 122.229 322.812 121.312C321.979 120.375 320.594 119.906 318.656 119.906C316.01 119.906 314.094 120.927 312.906 122.969V147H303.875V99H312.906V116.875ZM338.5 129.781C338.5 126.427 339.146 123.438 340.438 120.812C341.729 118.188 343.583 116.156 346 114.719C348.438 113.281 351.26 112.562 354.469 112.562C359.031 112.562 362.75 113.958 365.625 116.75C368.521 119.542 370.135 123.333 370.469 128.125L370.531 130.438C370.531 135.625 369.083 139.792 366.188 142.938C363.292 146.062 359.406 147.625 354.531 147.625C349.656 147.625 345.76 146.062 342.844 142.938C339.948 139.812 338.5 135.562 338.5 130.188V129.781ZM347.531 130.438C347.531 133.646 348.135 136.104 349.344 137.812C350.552 139.5 352.281 140.344 354.531 140.344C356.719 140.344 358.427 139.51 359.656 137.844C360.885 136.156 361.5 133.469 361.5 129.781C361.5 126.635 360.885 124.198 359.656 122.469C358.427 120.74 356.698 119.875 354.469 119.875C352.26 119.875 350.552 120.74 349.344 122.469C348.135 124.177 347.531 126.833 347.531 130.438ZM396.344 143.562C394.115 146.271 391.031 147.625 387.094 147.625C383.469 147.625 380.698 146.583 378.781 144.5C376.885 142.417 375.917 139.365 375.875 135.344V113.188H384.906V135.031C384.906 138.552 386.51 140.312 389.719 140.312C392.781 140.312 394.885 139.25 396.031 137.125V113.188H405.094V147H396.594L396.344 143.562ZM430.219 137.656C430.219 136.552 429.667 135.688 428.562 135.062C427.479 134.417 425.729 133.844 423.312 133.344C415.271 131.656 411.25 128.24 411.25 123.094C411.25 120.094 412.49 117.594 414.969 115.594C417.469 113.573 420.729 112.562 424.75 112.562C429.042 112.562 432.469 113.573 435.031 115.594C437.615 117.615 438.906 120.24 438.906 123.469H429.875C429.875 122.177 429.458 121.115 428.625 120.281C427.792 119.427 426.49 119 424.719 119C423.198 119 422.021 119.344 421.188 120.031C420.354 120.719 419.938 121.594 419.938 122.656C419.938 123.656 420.406 124.469 421.344 125.094C422.302 125.698 423.906 126.229 426.156 126.688C428.406 127.125 430.302 127.625 431.844 128.188C436.615 129.938 439 132.969 439 137.281C439 140.365 437.677 142.865 435.031 144.781C432.385 146.677 428.969 147.625 424.781 147.625C421.948 147.625 419.427 147.125 417.219 146.125C415.031 145.104 413.312 143.719 412.062 141.969C410.812 140.198 410.188 138.292 410.188 136.25H418.75C418.833 137.854 419.427 139.083 420.531 139.938C421.635 140.792 423.115 141.219 424.969 141.219C426.698 141.219 428 140.896 428.875 140.25C429.771 139.583 430.219 138.719 430.219 137.656ZM460.406 147.625C455.448 147.625 451.406 146.104 448.281 143.062C445.177 140.021 443.625 135.969 443.625 130.906V130.031C443.625 126.635 444.281 123.604 445.594 120.938C446.906 118.25 448.76 116.188 451.156 114.75C453.573 113.292 456.323 112.562 459.406 112.562C464.031 112.562 467.667 114.021 470.312 116.938C472.979 119.854 474.312 123.99 474.312 129.344V133.031H452.781C453.073 135.24 453.948 137.01 455.406 138.344C456.885 139.677 458.75 140.344 461 140.344C464.479 140.344 467.198 139.083 469.156 136.562L473.594 141.531C472.24 143.448 470.406 144.948 468.094 146.031C465.781 147.094 463.219 147.625 460.406 147.625ZM459.375 119.875C457.583 119.875 456.125 120.479 455 121.688C453.896 122.896 453.188 124.625 452.875 126.875H465.438V126.156C465.396 124.156 464.854 122.615 463.812 121.531C462.771 120.427 461.292 119.875 459.375 119.875ZM479.938 142.562C479.938 141.125 480.417 139.958 481.375 139.062C482.354 138.167 483.573 137.719 485.031 137.719C486.51 137.719 487.729 138.167 488.688 139.062C489.667 139.958 490.156 141.125 490.156 142.562C490.156 143.979 489.677 145.135 488.719 146.031C487.76 146.906 486.531 147.344 485.031 147.344C483.552 147.344 482.333 146.906 481.375 146.031C480.417 145.135 479.938 143.979 479.938 142.562ZM506.406 113.188L506.688 117.094C509.104 114.073 512.344 112.562 516.406 112.562C519.99 112.562 522.656 113.615 524.406 115.719C526.156 117.823 527.052 120.969 527.094 125.156V147H518.062V125.375C518.062 123.458 517.646 122.073 516.812 121.219C515.979 120.344 514.594 119.906 512.656 119.906C510.115 119.906 508.208 120.99 506.938 123.156V147H497.906V113.188H506.406ZM532.656 129.844C532.656 124.656 533.885 120.479 536.344 117.312C538.823 114.146 542.156 112.562 546.344 112.562C550.052 112.562 552.938 113.833 555 116.375L555.375 113.188H563.562V145.875C563.562 148.833 562.885 151.406 561.531 153.594C560.198 155.781 558.312 157.448 555.875 158.594C553.438 159.74 550.583 160.312 547.312 160.312C544.833 160.312 542.417 159.812 540.062 158.812C537.708 157.833 535.927 156.562 534.719 155L538.719 149.5C540.969 152.021 543.698 153.281 546.906 153.281C549.302 153.281 551.167 152.635 552.5 151.344C553.833 150.073 554.5 148.26 554.5 145.906V144.094C552.417 146.448 549.677 147.625 546.281 147.625C542.219 147.625 538.927 146.042 536.406 142.875C533.906 139.688 532.656 135.469 532.656 130.219V129.844ZM541.688 130.5C541.688 133.562 542.302 135.969 543.531 137.719C544.76 139.448 546.448 140.312 548.594 140.312C551.344 140.312 553.312 139.281 554.5 137.219V123C553.292 120.938 551.344 119.906 548.656 119.906C546.49 119.906 544.781 120.792 543.531 122.562C542.302 124.333 541.688 126.979 541.688 130.5Z" fill="#FFB20F"/>
<rect x="16.1096" y="117.662" width="110.753" height="25.4935" fill="#242424"/>
<path d="M67.1295 5.89341C70.8294 3.26498 76.1707 3.26498 79.8706 5.89341L141.319 49.5469C148.572 54.699 144.346 64.8495 134.949 64.8495H12.0515C2.65419 64.8495 -1.57144 54.6991 5.68099 49.5469L67.1295 5.89341Z" fill="#242424"/>
<path d="M18.402 46.28H134.609V127.468H18.402V46.28Z" fill="#242424"/>
<path fill-rule="evenodd" clip-rule="evenodd" d="M3.73729 64.8042H6.83475C9.59617 64.8042 11.8347 67.0427 11.8347 69.8042V146C11.8347 148.761 14.0733 151 16.8347 151H131.411C134.172 151 136.411 148.761 136.411 146V69.8042C136.411 67.0427 138.65 64.8042 141.411 64.8042H142C144.761 64.8042 147 62.5656 147 59.8042V39.5064C147 37.6521 145.974 35.95 144.334 35.0845L80.0618 1.162C78.6752 0.430179 77.0257 0.391115 75.606 1.05648L2.87808 35.1428C1.12178 35.9659 0 37.7305 0 39.6702V61.0669C0 63.1309 1.67324 64.8042 3.73729 64.8042ZM122.396 138.417C120.504 138.417 118.97 136.883 118.97 134.991V79.8708C118.97 77.1094 116.732 74.8708 113.97 74.8708H34.8983C32.1369 74.8708 29.8983 77.1094 29.8983 79.8708V135.302C29.8983 137.022 28.5039 138.417 26.7839 138.417C25.0639 138.417 23.6695 137.022 23.6695 135.302V59.428C23.6695 57.8799 22.4146 56.625 20.8665 56.625C19.3185 56.625 18.0636 55.3701 18.0636 53.822V46.7329C18.0636 44.7209 19.2695 42.9049 21.124 42.1245L75.8563 19.0892C77.1344 18.5513 78.5785 18.5683 79.8436 19.1363L130.967 42.0872C132.764 42.8936 133.919 44.6794 133.919 46.6486V52.5763C133.919 54.8123 132.107 56.625 129.871 56.625C127.635 56.625 125.822 58.4377 125.822 60.6737V134.991C125.822 136.883 124.288 138.417 122.396 138.417Z" fill="#FFB20F"/>
<path d="M36.1271 91.8583V101.183C36.1271 102.288 37.0226 103.183 38.1271 103.183H57.1737C58.2783 103.183 59.1737 102.288 59.1737 101.183V91.3417C59.1737 90.2371 58.2783 89.3417 57.1737 89.3417H38.1271C37.0226 89.3417 36.1271 90.2371 36.1271 91.3417V91.8583Z" fill="#141313"/>
<path d="M29.8983 60.1712V68.4666C29.8983 69.5712 30.7937 70.4666 31.8983 70.4666H47.8305C48.9351 70.4666 49.8305 69.5712 49.8305 68.4666V59.8833C49.8305 58.7787 48.9351 57.8833 47.8305 57.8833H31.8983C30.7937 57.8833 29.8983 58.7787 29.8983 59.8833V60.1712Z" fill="#FFB20F"/>
<path d="M52.322 60.1712V68.4666C52.322 69.5712 53.2175 70.4666 54.322 70.4666H70.2542C71.3588 70.4666 72.2542 69.5712 72.2542 68.4666V59.8833C72.2542 58.7787 71.3588 57.8833 70.2542 57.8833H54.322C53.2175 57.8833 52.322 58.7787 52.322 59.8833V60.1712Z" fill="#FFB20F"/>
<path d="M75.9916 60.1712V68.4666C75.9916 69.5712 76.887 70.4666 77.9916 70.4666H93.9238C95.0284 70.4666 95.9238 69.5712 95.9238 68.4666V59.8833C95.9238 58.7787 95.0284 57.8833 93.9238 57.8833H77.9916C76.887 57.8833 75.9916 58.7787 75.9916 59.8833V60.1712Z" fill="#FFB20F"/>
<path d="M98.4152 60.1712V68.4666C98.4152 69.5712 99.3107 70.4666 100.415 70.4666H116.347C117.452 70.4666 118.347 69.5712 118.347 68.4666V59.8833C118.347 58.7787 117.452 57.8833 116.347 57.8833H100.415C99.3107 57.8833 98.4152 58.7787 98.4152 59.8833V60.1712Z" fill="#FFB20F"/>
<path d="M36.1271 109.475V118.8C36.1271 119.905 37.0226 120.8 38.1271 120.8H57.1737C58.2783 120.8 59.1737 119.905 59.1737 118.8V108.958C59.1737 107.854 58.2783 106.958 57.1737 106.958H38.1271C37.0226 106.958 36.1271 107.854 36.1271 108.958V109.475Z" fill="#141313"/>
<path d="M36.1271 127.092V136.417C36.1271 137.521 37.0226 138.417 38.1271 138.417H57.1737C58.2783 138.417 59.1737 137.521 59.1737 136.417V126.575C59.1737 125.47 58.2783 124.575 57.1737 124.575H38.1271C37.0226 124.575 36.1271 125.47 36.1271 126.575V127.092Z" fill="#141313"/>
<path d="M63.5339 127.092V136.417C63.5339 137.521 64.4293 138.417 65.5339 138.417H84.5805C85.6851 138.417 86.5805 137.521 86.5805 136.417V126.575C86.5805 125.47 85.6851 124.575 84.5805 124.575H65.5339C64.4293 124.575 63.5339 125.47 63.5339 126.575V127.092Z" fill="#141313"/>
<path d="M90.9407 127.092V136.417C90.9407 137.521 91.8361 138.417 92.9407 138.417H111.987C113.092 138.417 113.987 137.521 113.987 136.417V126.575C113.987 125.47 113.092 124.575 111.987 124.575H92.9407C91.8361 124.575 90.9407 125.47 90.9407 126.575V127.092Z" fill="#141313"/>
<path d="M63.5339 109.475V118.8C63.5339 119.905 64.4293 120.8 65.5339 120.8H84.5805C85.6851 120.8 86.5805 119.905 86.5805 118.8V108.958C86.5805 107.854 85.6851 106.958 84.5805 106.958H65.5339C64.4293 106.958 63.5339 107.854 63.5339 108.958V109.475Z" fill="#141313"/>
</svg>
