<svg width="104" height="32" viewBox="0 0 104 32" fill="none" xmlns="http://www.w3.org/2000/svg">
<rect width="103.032" height="31.4177" rx="5" fill="black"/>
<path d="M24.1945 13.3294C21.6636 11.9423 17.6014 9.7148 11.3007 6.25769C10.8759 5.98277 10.3871 5.94675 9.96484 6.08681L20.7751 16.6801L24.1945 13.3294Z" fill="#32BBFF"/>
<path d="M9.96411 6.08716C9.88496 6.11343 9.80794 6.14512 9.73429 6.1834C9.26796 6.43058 8.92529 6.90622 8.92529 7.50779V25.853C8.92529 26.4546 9.26792 26.9302 9.73429 27.1774C9.80782 27.2156 9.88479 27.2474 9.96385 27.2739L20.7744 16.6804L9.96411 6.08716Z" fill="#32BBFF"/>
<path d="M20.7749 16.6799L9.96436 27.2734C10.3868 27.4145 10.8755 27.3812 11.3004 27.1023C17.4108 23.7494 21.4272 21.5484 23.9874 20.1494C24.0586 20.1102 24.1285 20.0718 24.1975 20.0338L20.7749 16.6799Z" fill="#32BBFF"/>
<path d="M8.92529 16.6801V25.8527C8.92529 26.4542 9.26792 26.9299 9.73429 27.177C9.80782 27.2152 9.88479 27.2471 9.96386 27.2735L20.7744 16.6801H8.92529Z" fill="#2C9FD9"/>
<path d="M11.3 6.2577C10.7956 5.93129 10.2007 5.94059 9.73438 6.1831L20.6104 16.8408L24.1938 13.3294C21.6629 11.9422 17.6008 9.7148 11.3 6.2577Z" fill="#29CC5E"/>
<path d="M20.6105 16.5193L9.73438 27.177C10.2007 27.4194 10.7956 27.4334 11.3 27.1024C17.4104 23.7495 21.4268 21.5484 23.9869 20.1495C24.0582 20.1102 24.128 20.0719 24.1971 20.0339L20.6105 16.5193Z" fill="#D93F21"/>
<path d="M28.7076 16.6801C28.7076 16.1718 28.4459 15.6589 27.9271 15.3744C27.9271 15.3744 26.957 14.844 23.9833 13.2141L20.4463 16.6801L23.9868 20.1495C26.9278 18.5314 27.9271 17.9858 27.9271 17.9858C28.4459 17.7014 28.7076 17.1884 28.7076 16.6801Z" fill="#FFD500"/>
<path d="M27.9271 17.9858C28.4459 17.7013 28.7076 17.1883 28.7076 16.6801H20.4463L23.9868 20.1495C26.9278 18.5314 27.9271 17.9858 27.9271 17.9858Z" fill="#FFAA00"/>
<path d="M40.7952 21.908C40.7952 22.508 40.6872 23.068 40.4712 23.588C40.2632 24.1 39.9752 24.544 39.6072 24.92C39.2392 25.296 38.7992 25.592 38.2872 25.808C37.7832 26.024 37.2392 26.132 36.6552 26.132C36.0472 26.132 35.4752 26.02 34.9392 25.796C34.4032 25.572 33.9392 25.268 33.5472 24.884C33.1552 24.492 32.8432 24.032 32.6112 23.504C32.3872 22.968 32.2752 22.4 32.2752 21.8C32.2752 21.2 32.3872 20.636 32.6112 20.108C32.8432 19.572 33.1512 19.112 33.5352 18.728C33.9272 18.336 34.3912 18.028 34.9272 17.804C35.4632 17.58 36.0352 17.468 36.6432 17.468C37.3072 17.468 37.9352 17.596 38.5272 17.852C39.1192 18.108 39.6192 18.464 40.0272 18.92L39.1632 19.76C38.8512 19.4 38.4712 19.124 38.0232 18.932C37.5832 18.732 37.1232 18.632 36.6432 18.632C36.2112 18.632 35.8032 18.712 35.4192 18.872C35.0432 19.032 34.7152 19.256 34.4352 19.544C34.1632 19.824 33.9472 20.16 33.7872 20.552C33.6352 20.936 33.5592 21.352 33.5592 21.8C33.5592 22.248 33.6392 22.668 33.7992 23.06C33.9592 23.444 34.1752 23.78 34.4472 24.068C34.7272 24.348 35.0552 24.572 35.4312 24.74C35.8152 24.9 36.2272 24.98 36.6672 24.98C37.4112 24.98 38.0432 24.756 38.5632 24.308C39.0912 23.852 39.3952 23.276 39.4752 22.58H36.6792V21.476H40.7952V21.908ZM41.6957 22.94C41.6957 22.5 41.7757 22.088 41.9357 21.704C42.1037 21.312 42.3317 20.976 42.6197 20.696C42.9077 20.408 43.2437 20.184 43.6277 20.024C44.0197 19.856 44.4357 19.772 44.8757 19.772C45.3157 19.772 45.7277 19.856 46.1117 20.024C46.5037 20.184 46.8397 20.408 47.1197 20.696C47.4077 20.976 47.6317 21.312 47.7917 21.704C47.9597 22.088 48.0437 22.5 48.0437 22.94C48.0437 23.388 47.9597 23.808 47.7917 24.2C47.6317 24.584 47.4077 24.92 47.1197 25.208C46.8397 25.488 46.5037 25.712 46.1117 25.88C45.7277 26.04 45.3157 26.12 44.8757 26.12C44.4357 26.12 44.0197 26.04 43.6277 25.88C43.2437 25.712 42.9077 25.488 42.6197 25.208C42.3317 24.92 42.1037 24.584 41.9357 24.2C41.7757 23.808 41.6957 23.388 41.6957 22.94ZM44.8757 25.064C45.4277 25.064 45.8957 24.86 46.2797 24.452C46.6717 24.036 46.8677 23.532 46.8677 22.94C46.8677 22.348 46.6717 21.848 46.2797 21.44C45.8957 21.032 45.4277 20.828 44.8757 20.828C44.3237 20.828 43.8517 21.032 43.4597 21.44C43.0677 21.848 42.8717 22.348 42.8717 22.94C42.8717 23.532 43.0637 24.036 43.4477 24.452C43.8397 24.86 44.3157 25.064 44.8757 25.064ZM48.9261 22.94C48.9261 22.5 49.0061 22.088 49.1661 21.704C49.3341 21.312 49.5621 20.976 49.8501 20.696C50.1381 20.408 50.4741 20.184 50.8581 20.024C51.2501 19.856 51.6661 19.772 52.1061 19.772C52.5461 19.772 52.9581 19.856 53.3421 20.024C53.7341 20.184 54.0701 20.408 54.3501 20.696C54.6381 20.976 54.8621 21.312 55.0221 21.704C55.1901 22.088 55.2741 22.5 55.2741 22.94C55.2741 23.388 55.1901 23.808 55.0221 24.2C54.8621 24.584 54.6381 24.92 54.3501 25.208C54.0701 25.488 53.7341 25.712 53.3421 25.88C52.9581 26.04 52.5461 26.12 52.1061 26.12C51.6661 26.12 51.2501 26.04 50.8581 25.88C50.4741 25.712 50.1381 25.488 49.8501 25.208C49.5621 24.92 49.3341 24.584 49.1661 24.2C49.0061 23.808 48.9261 23.388 48.9261 22.94ZM52.1061 25.064C52.6581 25.064 53.1261 24.86 53.5101 24.452C53.9021 24.036 54.0981 23.532 54.0981 22.94C54.0981 22.348 53.9021 21.848 53.5101 21.44C53.1261 21.032 52.6581 20.828 52.1061 20.828C51.5541 20.828 51.0821 21.032 50.6901 21.44C50.2981 21.848 50.1021 22.348 50.1021 22.94C50.1021 23.532 50.2941 24.036 50.6781 24.452C51.0701 24.86 51.5461 25.064 52.1061 25.064ZM59.2286 26.048C58.8046 26.048 58.4046 25.968 58.0286 25.808C57.6526 25.64 57.3246 25.416 57.0446 25.136C56.7726 24.856 56.5566 24.524 56.3966 24.14C56.2366 23.756 56.1566 23.348 56.1566 22.916C56.1566 22.484 56.2366 22.076 56.3966 21.692C56.5566 21.308 56.7726 20.976 57.0446 20.696C57.3246 20.416 57.6526 20.196 58.0286 20.036C58.4126 19.868 58.8206 19.784 59.2526 19.784C59.5806 19.784 59.8966 19.836 60.2006 19.94C60.5126 20.044 60.8006 20.196 61.0646 20.396V19.892H62.2526V26.084C62.2526 26.876 62.0086 27.484 61.5206 27.908C61.0406 28.34 60.3526 28.556 59.4566 28.556C59.0166 28.556 58.5806 28.504 58.1486 28.4C57.7246 28.296 57.3406 28.148 56.9966 27.956L57.4646 27.02C57.8086 27.196 58.1406 27.328 58.4606 27.416C58.7806 27.504 59.1006 27.548 59.4206 27.548C59.9486 27.548 60.3526 27.424 60.6326 27.176C60.9126 26.928 61.0526 26.564 61.0526 26.084V25.4C60.7966 25.608 60.5126 25.768 60.2006 25.88C59.8886 25.992 59.5646 26.048 59.2286 26.048ZM57.3326 22.916C57.3326 23.5 57.5286 23.996 57.9206 24.404C58.3126 24.804 58.7966 25.004 59.3726 25.004C59.7166 25.004 60.0326 24.944 60.3206 24.824C60.6086 24.696 60.8526 24.52 61.0526 24.296V21.536C60.8606 21.312 60.6166 21.14 60.3206 21.02C60.0326 20.892 59.7166 20.828 59.3726 20.828C58.7966 20.828 58.3126 21.032 57.9206 21.44C57.5286 21.84 57.3326 22.332 57.3326 22.916ZM64.8631 17.336V26H63.6631V17.6L64.8631 17.336ZM71.5684 25.304C71.2164 25.576 70.8484 25.78 70.4644 25.916C70.0804 26.044 69.6604 26.108 69.2044 26.108C68.7564 26.108 68.3364 26.028 67.9444 25.868C67.5524 25.7 67.2124 25.476 66.9244 25.196C66.6364 24.916 66.4084 24.584 66.2404 24.2C66.0804 23.808 66.0004 23.388 66.0004 22.94C66.0004 22.5 66.0804 22.088 66.2404 21.704C66.4004 21.32 66.6164 20.988 66.8884 20.708C67.1604 20.428 67.4844 20.208 67.8604 20.048C68.2364 19.88 68.6364 19.796 69.0604 19.796C69.4764 19.796 69.8644 19.88 70.2244 20.048C70.5924 20.208 70.9044 20.432 71.1604 20.72C71.4244 21 71.6324 21.336 71.7844 21.728C71.9364 22.12 72.0124 22.54 72.0124 22.988V23.336H67.1884C67.2684 23.84 67.5004 24.26 67.8844 24.596C68.2684 24.924 68.7244 25.088 69.2524 25.088C69.5484 25.088 69.8324 25.04 70.1044 24.944C70.3764 24.848 70.6084 24.716 70.8004 24.548L71.5684 25.304ZM69.0364 20.804C68.5804 20.804 68.1804 20.956 67.8364 21.26C67.5004 21.564 67.2884 21.956 67.2004 22.436H70.8244C70.7364 21.972 70.5244 21.584 70.1884 21.272C69.8604 20.96 69.4764 20.804 69.0364 20.804ZM75.8071 26V17.6H79.6951C80.5111 17.6 81.1711 17.836 81.6751 18.308C82.1871 18.772 82.4431 19.376 82.4431 20.12C82.4431 20.856 82.1871 21.456 81.6751 21.92C81.1631 22.384 80.5031 22.616 79.6951 22.616H77.0671V26H75.8071ZM79.5631 18.704H77.0671V21.548H79.5631C80.0511 21.548 80.4391 21.42 80.7271 21.164C81.0231 20.9 81.1711 20.552 81.1711 20.12C81.1711 19.688 81.0231 19.344 80.7271 19.088C80.4391 18.832 80.0511 18.704 79.5631 18.704ZM84.7967 17.336V26H83.5967V17.6L84.7967 17.336ZM88.142 26.108C87.478 26.108 86.938 25.936 86.522 25.592C86.106 25.248 85.898 24.8 85.898 24.248C85.898 23.672 86.118 23.22 86.558 22.892C86.998 22.556 87.602 22.388 88.37 22.388C88.666 22.388 88.954 22.42 89.234 22.484C89.514 22.54 89.782 22.62 90.038 22.724V22.076C90.038 21.644 89.91 21.32 89.654 21.104C89.398 20.888 89.03 20.78 88.55 20.78C88.27 20.78 87.978 20.824 87.674 20.912C87.37 20.992 87.03 21.12 86.654 21.296L86.21 20.396C86.666 20.18 87.098 20.024 87.506 19.928C87.914 19.824 88.318 19.772 88.718 19.772C89.51 19.772 90.122 19.964 90.554 20.348C90.994 20.724 91.214 21.26 91.214 21.956V26H90.038V25.472C89.766 25.688 89.474 25.848 89.162 25.952C88.85 26.056 88.51 26.108 88.142 26.108ZM87.05 24.224C87.05 24.52 87.174 24.76 87.422 24.944C87.678 25.128 88.01 25.22 88.418 25.22C88.738 25.22 89.034 25.172 89.306 25.076C89.578 24.98 89.822 24.836 90.038 24.644V23.588C89.806 23.46 89.562 23.368 89.306 23.312C89.05 23.248 88.77 23.216 88.466 23.216C88.034 23.216 87.69 23.308 87.434 23.492C87.178 23.676 87.05 23.92 87.05 24.224ZM94.0035 26.576L94.2435 26.024L91.8075 19.892H93.1275L94.9155 24.56L96.8835 19.892H98.1795L95.2275 26.732C94.9475 27.38 94.6275 27.844 94.2675 28.124C93.9075 28.412 93.4475 28.556 92.8875 28.556C92.7595 28.556 92.6395 28.548 92.5275 28.532C92.4235 28.524 92.3315 28.508 92.2515 28.484V27.428C92.3315 27.444 92.4115 27.456 92.4915 27.464C92.5795 27.472 92.6795 27.476 92.7915 27.476C93.0635 27.476 93.2995 27.4 93.4995 27.248C93.7075 27.104 93.8755 26.88 94.0035 26.576Z" fill="white"/>
<path d="M52.3535 12.0771C52.0964 12.4124 51.7399 12.6663 51.2842 12.8389C50.8285 13.0114 50.3109 13.0977 49.7314 13.0977C49.1357 13.0977 48.6084 12.9626 48.1494 12.6924C47.6904 12.4222 47.3356 12.0365 47.085 11.5352C46.8376 11.0306 46.709 10.443 46.6992 9.77246V9.21582C46.6992 8.1416 46.9564 7.30339 47.4707 6.70117C47.985 6.0957 48.7028 5.79297 49.624 5.79297C50.415 5.79297 51.0433 5.98828 51.5088 6.37891C51.9743 6.76953 52.2542 7.33268 52.3486 8.06836H51.1377C51.001 7.21224 50.5046 6.78418 49.6484 6.78418C49.0951 6.78418 48.6735 6.98438 48.3838 7.38477C48.0973 7.7819 47.9492 8.36621 47.9395 9.1377V9.68457C47.9395 10.4528 48.1006 11.0501 48.4229 11.4766C48.7484 11.8997 49.1992 12.1113 49.7754 12.1113C50.4069 12.1113 50.8561 11.9681 51.123 11.6816V10.29H49.6582V9.35254H52.3535V12.0771ZM55.9229 13.0977C55.1709 13.0977 54.5605 12.8617 54.0918 12.3896C53.6263 11.9144 53.3936 11.2829 53.3936 10.4951V10.3486C53.3936 9.82129 53.4945 9.35091 53.6963 8.9375C53.9014 8.52083 54.1878 8.19694 54.5557 7.96582C54.9235 7.7347 55.3337 7.61914 55.7861 7.61914C56.5055 7.61914 57.0605 7.84863 57.4512 8.30762C57.8451 8.7666 58.042 9.41602 58.042 10.2559V10.7344H54.5898C54.6257 11.1706 54.7705 11.5156 55.0244 11.7695C55.2816 12.0234 55.6038 12.1504 55.9912 12.1504C56.5348 12.1504 56.9775 11.9307 57.3193 11.4912L57.959 12.1016C57.7474 12.4173 57.4642 12.6631 57.1094 12.8389C56.7578 13.0114 56.3623 13.0977 55.9229 13.0977ZM55.7812 8.57129C55.4557 8.57129 55.1921 8.68522 54.9902 8.91309C54.7917 9.14095 54.6647 9.45833 54.6094 9.86523H56.8701V9.77734C56.8441 9.38021 56.7383 9.08073 56.5527 8.87891C56.3672 8.67383 56.11 8.57129 55.7812 8.57129ZM60.4541 6.43262V7.7168H61.3867V8.5957H60.4541V11.5449C60.4541 11.7467 60.4932 11.8932 60.5713 11.9844C60.6527 12.0723 60.7959 12.1162 61.001 12.1162C61.1377 12.1162 61.276 12.0999 61.416 12.0674V12.9854C61.1458 13.0602 60.8854 13.0977 60.6348 13.0977C59.7233 13.0977 59.2676 12.5947 59.2676 11.5889V8.5957H58.3984V7.7168H59.2676V6.43262H60.4541ZM66.0498 13H64.8633V7.7168H66.0498V13ZM64.79 6.34473C64.79 6.16243 64.847 6.01107 64.9609 5.89062C65.0781 5.77018 65.2441 5.70996 65.459 5.70996C65.6738 5.70996 65.8398 5.77018 65.957 5.89062C66.0742 6.01107 66.1328 6.16243 66.1328 6.34473C66.1328 6.52376 66.0742 6.6735 65.957 6.79395C65.8398 6.91113 65.6738 6.96973 65.459 6.96973C65.2441 6.96973 65.0781 6.91113 64.9609 6.79395C64.847 6.6735 64.79 6.52376 64.79 6.34473ZM68.833 6.43262V7.7168H69.7656V8.5957H68.833V11.5449C68.833 11.7467 68.8721 11.8932 68.9502 11.9844C69.0316 12.0723 69.1748 12.1162 69.3799 12.1162C69.5166 12.1162 69.6549 12.0999 69.7949 12.0674V12.9854C69.5247 13.0602 69.2643 13.0977 69.0137 13.0977C68.1022 13.0977 67.6465 12.5947 67.6465 11.5889V8.5957H66.7773V7.7168H67.6465V6.43262H68.833ZM72.9443 10.3096C72.9443 9.79199 73.0469 9.3265 73.252 8.91309C73.457 8.49642 73.7451 8.17741 74.1162 7.95605C74.4873 7.73145 74.9137 7.61914 75.3955 7.61914C76.1084 7.61914 76.6862 7.84863 77.1289 8.30762C77.5749 8.7666 77.8158 9.37533 77.8516 10.1338L77.8564 10.4121C77.8564 10.9329 77.7555 11.3984 77.5537 11.8086C77.3551 12.2188 77.0687 12.5361 76.6943 12.7607C76.3232 12.9854 75.8936 13.0977 75.4053 13.0977C74.6598 13.0977 74.0625 12.8503 73.6133 12.3555C73.1673 11.8574 72.9443 11.195 72.9443 10.3682V10.3096ZM74.1309 10.4121C74.1309 10.9557 74.2432 11.3822 74.4678 11.6914C74.6924 11.9974 75.0049 12.1504 75.4053 12.1504C75.8057 12.1504 76.1165 11.9941 76.3379 11.6816C76.5625 11.3691 76.6748 10.9118 76.6748 10.3096C76.6748 9.77572 76.5592 9.35254 76.3281 9.04004C76.1003 8.72754 75.7894 8.57129 75.3955 8.57129C75.0081 8.57129 74.7005 8.72591 74.4727 9.03516C74.2448 9.34115 74.1309 9.80013 74.1309 10.4121ZM79.9609 7.7168L79.9951 8.32715C80.3857 7.85514 80.8984 7.61914 81.5332 7.61914C82.6335 7.61914 83.1934 8.24902 83.2129 9.50879V13H82.0264V9.57715C82.0264 9.24186 81.9531 8.99447 81.8066 8.83496C81.6634 8.6722 81.4274 8.59082 81.0986 8.59082C80.6201 8.59082 80.2637 8.80729 80.0293 9.24023V13H78.8428V7.7168H79.9609Z" fill="white"/>
</svg>
