<svg width="58" height="61" viewBox="0 0 58 61" fill="none" xmlns="http://www.w3.org/2000/svg">
<path d="M13.5538 11.6117L36.6757 4.69689L35.4512 1.98521C34.6501 0.222614 32.6961 -0.505259 31.0874 0.37247L10.3884 11.6117H13.5538Z" fill="black"/>
<path d="M43.8533 4.89673C43.5667 4.89673 43.2801 4.93954 42.9935 5.02518L37.5616 6.65219L20.9724 11.6117H39.8021H48.0087L46.9926 7.52992C46.6018 5.93859 45.2862 4.89673 43.8533 4.89673Z" fill="black"/>
<path d="M51.4021 14.1093H50.6596H49.6501H48.6405H40.9354H12.6226H8.91005H5.78372H5.20404H3.26311C2.23403 14.1093 1.31567 14.6302 0.716451 15.4508C0.442897 15.829 0.234475 16.2643 0.117238 16.7424C0.0455924 17.0422 0 17.3561 0 17.6773V18.1054V22.1729V57.432C0 59.4016 1.45896 61 3.2566 61H51.3956C53.1933 61 54.6522 59.4016 54.6522 57.432V47.4772H35.3276C32.2729 47.4772 29.7914 44.7584 29.7914 41.4116V38.1433V37.0372V35.9312V33.4764C29.7914 31.8351 30.3905 30.3437 31.361 29.2519C32.2208 28.2814 33.3736 27.6249 34.6632 27.4607C34.8782 27.4323 35.0996 27.4179 35.3211 27.4179H51.9427H52.9523H53.9618H54.6522V17.6773C54.6587 15.7077 53.1998 14.1093 51.4021 14.1093Z" fill="black"/>
<path d="M56.9384 30.829C56.6128 30.5007 56.2285 30.251 55.7986 30.0868C55.4664 29.9656 55.1147 29.8942 54.7435 29.8942H54.6588H54.5937H53.5841H49.9433H35.3276C33.5299 29.8942 32.071 31.4926 32.071 33.4622V35.239V36.3451V37.4512V41.4045C32.071 43.3741 33.5299 44.9725 35.3276 44.9725H54.6588H54.7435C55.1147 44.9725 55.4664 44.9012 55.7986 44.7799C56.2285 44.6229 56.6128 44.366 56.9384 44.0377C57.5897 43.3884 58.0001 42.4464 58.0001 41.4046V33.4622C58.0001 32.4203 57.5897 31.4783 56.9384 30.829ZM42.1274 38.1434C42.1274 39.1281 41.3979 39.9274 40.4991 39.9274H39.4179C38.5191 39.9274 37.7896 39.1281 37.7896 38.1434V36.9588C37.7896 36.3879 38.0306 35.8812 38.4149 35.5601C38.695 35.3246 39.0402 35.1748 39.4179 35.1748H39.6915H40.4991C41.3979 35.1748 42.1274 35.974 42.1274 36.9588V38.1434Z" fill="black"/>
</svg>
